<svg width="193" height="60" viewBox="0 0 193 60" fill="none" xmlns="http://www.w3.org/2000/svg">
<g clip-path="url(#clip0_1_91)">
<path d="M0 6C0 2.68629 2.68629 0 6 0H187C190.314 0 193 2.68629 193 6V54C193 57.3137 190.314 60 187 60H5.99999C2.68629 60 0 57.3137 0 54V6Z" fill="#35B8BE"/>
<g opacity="0.2">
<path opacity="0.2" fill-rule="evenodd" clip-rule="evenodd" d="M-2.5169 -57.048C3.24077 -53.302 4.24986 -45.4662 6.65501 -38.9562C8.89263 -32.9002 11.1616 -27.0011 10.9716 -20.5431C10.7521 -12.9351 11.4722 -3.55416 5.50388 0.998844C-0.507534 5.58684 -8.99559 0.125926 -16.5148 0.432926C-23.3178 0.708926 -30.6694 6.60499 -36.3115 2.70099C-42.0133 -1.24701 -39.2907 -10.5212 -41.788 -17.0632C-44.0912 -23.0962 -50.8893 -27.4822 -50.2888 -33.9162C-49.6794 -40.4462 -43.6837 -44.8353 -38.7999 -49.0973C-34.0327 -53.2553 -28.7943 -56.6791 -22.6526 -58.0241C-15.925 -59.4991 -8.33041 -60.829 -2.5169 -57.048Z" stroke="white"/>
<path opacity="0.2" fill-rule="evenodd" clip-rule="evenodd" d="M1.03652 -64.6132C8.19614 -59.9552 9.45308 -50.2133 12.4461 -42.1273C15.2313 -34.5973 18.0499 -27.2681 17.8216 -19.2391C17.5522 -9.78815 18.4516 1.86896 11.0333 7.52696C3.56118 13.227 -6.99306 6.4347 -16.3403 6.8087C-24.798 7.1507 -33.9347 14.4747 -40.9513 9.61974C-48.0423 4.71274 -44.6614 -6.81227 -47.769 -14.9423C-50.6346 -22.4423 -59.0884 -27.8951 -58.3497 -35.8881C-57.5953 -44.0011 -50.1428 -49.4549 -44.0736 -54.7479C-38.1494 -59.9129 -31.6383 -64.1663 -24.0026 -65.8353C-15.635 -67.6663 -6.19363 -69.3172 1.03652 -64.6132Z" stroke="white"/>
<path opacity="0.2" fill-rule="evenodd" clip-rule="evenodd" d="M4.34004 -71.6342C12.8017 -66.1342 14.2908 -54.6263 17.8295 -45.0673C21.1222 -36.1733 24.4551 -27.5132 24.1867 -18.0312C23.8712 -6.86622 24.9372 6.90892 16.1728 13.5879C7.34477 20.3179 -5.12972 12.2929 -16.1738 12.7359C-26.1667 13.1359 -36.962 21.784 -45.2541 16.045C-53.6344 10.245 -49.6421 -3.36518 -53.317 -12.9702C-56.7048 -21.8292 -66.6957 -28.2762 -65.8199 -37.7182C-64.9313 -47.3052 -56.1258 -53.7461 -48.9554 -59.9951C-41.9564 -66.0951 -34.26 -71.1173 -25.2419 -73.0883C-15.3646 -75.2443 -4.20878 -77.1912 4.34004 -71.6342Z" stroke="white"/>
<path opacity="0.2" fill-rule="evenodd" clip-rule="evenodd" d="M7.76115 -78.9272C17.5738 -72.5452 19.3029 -59.2059 23.4088 -48.1269C27.2296 -37.8159 31.0945 -27.7737 30.7859 -16.7787C30.4244 -3.83173 31.6677 12.137 21.5004 19.88C11.2645 27.68 -3.20362 18.373 -16.0112 18.88C-27.601 19.34 -40.1166 29.368 -49.7333 22.712C-59.4519 15.987 -54.8277 0.205924 -59.0884 -10.9311C-63.0189 -21.2021 -74.6068 -28.6788 -73.5879 -39.6308C-72.5592 -50.7428 -62.3488 -58.211 -54.0351 -65.455C-45.9193 -72.525 -37.0002 -78.3468 -26.538 -80.6288C-15.0844 -83.1168 -2.14847 -85.3742 7.76115 -78.9272Z" stroke="white"/>
<path opacity="0.2" fill-rule="evenodd" clip-rule="evenodd" d="M11.9483 -87.8417C23.4107 -80.3827 25.4358 -64.8018 30.2333 -51.8568C34.6988 -39.8108 39.2171 -28.0821 38.8547 -15.2401C38.4334 -0.119135 39.8833 18.5342 28.0114 27.5792C16.0591 36.6862 -0.848486 25.8129 -15.8104 26.4059C-29.3508 26.9419 -43.9707 38.6501 -55.2069 30.8761C-66.5625 23.0191 -61.1605 4.58627 -66.1423 -8.42373C-70.736 -20.4237 -84.2744 -29.1547 -83.091 -41.9447C-81.8908 -54.9237 -69.963 -63.6449 -60.2533 -72.1039C-50.7738 -80.3619 -40.3547 -87.1581 -28.132 -89.8241C-14.7415 -92.7401 0.371249 -95.3717 11.9483 -87.8417Z" stroke="white"/>
<path opacity="0.2" fill-rule="evenodd" clip-rule="evenodd" d="M16.5166 -97.5646C29.7847 -88.9366 32.1271 -70.9079 37.6781 -55.9299C42.846 -41.9919 48.0765 -28.4197 47.6641 -13.5627C47.1742 3.93233 48.8583 25.512 35.124 35.972C21.2907 46.508 1.72913 33.9252 -15.5841 34.6112C-31.2513 35.2282 -48.1668 48.7742 -61.1693 39.7772C-74.3099 30.6862 -68.0624 9.36095 -73.8289 -5.69305C-79.1467 -19.574 -94.813 -29.6818 -93.4473 -44.4758C-92.0601 -59.4948 -78.2621 -69.5759 -67.0259 -79.3669C-56.0533 -88.9189 -44.0031 -96.781 -29.8602 -99.861C-14.3683 -103.237 3.11832 -106.28 16.5166 -97.5646Z" stroke="white"/>
<path opacity="0.2" fill-rule="evenodd" clip-rule="evenodd" d="M20.9576 -107.021C35.9783 -97.2511 38.6313 -76.8452 44.92 -59.8912C50.7727 -44.1152 56.695 -28.7521 56.2296 -11.9341C55.681 7.86586 57.5845 32.2932 42.0397 44.1332C26.3802 56.0562 4.2352 41.8099 -15.3636 42.5829C-33.0961 43.2829 -52.2462 58.6112 -66.9661 48.4272C-81.8428 38.1342 -74.7724 13.9969 -81.302 -3.04205C-87.3232 -18.7531 -105.059 -30.196 -103.515 -46.942C-101.947 -63.942 -86.3278 -75.3527 -73.6094 -86.4297C-61.1947 -97.2417 -47.5496 -106.139 -31.5394 -109.624C-14.0048 -113.442 5.78995 -116.886 20.9576 -107.021Z" stroke="white"/>
<path opacity="0.2" fill-rule="evenodd" clip-rule="evenodd" d="M25.0184 -115.666C41.6419 -104.856 44.579 -82.2759 51.5398 -63.5179C58.0165 -46.0599 64.5697 -29.062 64.0573 -10.452C63.4519 11.458 65.5602 38.4891 48.3587 51.5881C31.0298 64.7821 6.5257 49.0173 -15.1657 49.8713C-34.792 50.6413 -55.9789 67.6042 -72.2693 56.3322C-88.7281 44.9402 -80.9102 18.2321 -88.1403 -0.619942C-94.8022 -18.0079 -114.432 -30.67 -112.724 -49.2C-110.99 -68.009 -93.7069 -80.6369 -79.6326 -92.8929C-65.8953 -104.855 -50.7953 -114.693 -33.0795 -118.553C-13.6727 -122.774 8.2294 -126.582 25.0184 -115.666Z" stroke="white"/>
<path opacity="0.2" fill-rule="evenodd" clip-rule="evenodd" d="M29.333 -124.849C47.6592 -112.93 50.8981 -88.0429 58.573 -67.3619C65.715 -48.1159 72.9413 -29.3789 72.375 -8.86189C71.7098 15.2861 74.0405 45.082 55.0726 59.52C35.9685 74.062 8.95538 56.6841 -14.9531 57.6201C-36.5887 58.4711 -59.9427 77.1652 -77.9025 64.7392C-96.0523 52.1812 -87.431 22.7389 -95.3988 1.96088C-102.747 -17.2041 -124.384 -31.1629 -122.502 -51.5889C-120.592 -72.3229 -101.537 -86.241 -86.0261 -99.751C-70.8829 -112.937 -54.2379 -123.786 -34.7087 -128.034C-13.318 -132.687 10.8285 -136.885 29.333 -124.849Z" stroke="white"/>
<path opacity="0.2" fill-rule="evenodd" clip-rule="evenodd" d="M34.0258 -134.843C54.2075 -121.717 57.7736 -94.3178 66.2244 -71.5428C74.0885 -50.3558 82.0465 -29.7249 81.4254 -7.14288C80.6936 19.4461 83.2564 52.2512 62.3782 68.1462C41.348 84.1562 11.5996 65.0224 -14.7239 66.0534C-38.5462 66.9864 -64.2602 87.5694 -84.0344 73.8864C-104.02 60.0604 -94.5279 27.6503 -103.302 4.7663C-111.393 -16.3337 -135.219 -31.7076 -133.148 -54.1946C-131.045 -77.0196 -110.069 -92.3436 -92.9878 -107.216C-76.3154 -121.733 -57.9892 -133.675 -36.4859 -138.353C-12.9359 -143.476 13.6481 -148.099 34.0258 -134.843Z" stroke="white"/>
</g>
</g>
<defs>
<clipPath id="clip0_1_91">
<path d="M0 6C0 2.68629 2.68629 0 6 0H187C190.314 0 193 2.68629 193 6V54C193 57.3137 190.314 60 187 60H5.99999C2.68629 60 0 57.3137 0 54V6Z" fill="white"/>
</clipPath>
</defs>
</svg>
